<svg width="28" height="31" viewBox="0 0 28 31" fill="none" xmlns="http://www.w3.org/2000/svg">
<path d="M22.6853 29.7562C20.9261 31.3921 19.0053 31.1338 17.1563 30.3589C15.1996 29.5668 13.4044 29.5324 11.34 30.3589C8.75503 31.4266 7.39073 31.1166 5.84691 29.7562C-2.91337 21.0945 -1.62087 7.904 8.3242 7.42183C10.7476 7.54237 12.4351 8.69612 13.8532 8.79944C15.9715 8.38616 18 7.19797 20.2619 7.35295C22.9725 7.55959 25.019 8.5928 26.3653 10.4526C20.7645 13.6727 22.0929 20.7501 27.227 22.7304C26.2038 25.3134 24.8754 27.8792 22.6674 29.7734L22.6853 29.7562ZM13.6737 7.31851C13.4044 3.47845 16.6536 0.309961 20.3875 0C20.9081 4.44277 16.1869 7.74901 13.6737 7.31851Z" fill="white"/>
</svg>
