<svg width="647" height="105" viewBox="0 0 647 105" fill="none" xmlns="http://www.w3.org/2000/svg">
<path d="M151.907 1.92604V40.7219H141.121V1.92604H151.907ZM166.821 25.2586C166.821 22.0669 167.39 19.2787 168.527 16.8941C169.701 14.5095 171.297 12.6752 173.315 11.3911C175.332 10.1071 177.57 9.4651 180.028 9.4651C182.009 9.4651 183.77 9.88699 185.311 10.7308C186.889 11.5379 188.118 12.6568 188.998 14.0876V1.19273e-06H199.839V40.7219H188.998V36.4296C188.154 37.8604 186.962 38.9977 185.421 39.8414C183.88 40.6852 182.064 41.1071 179.973 41.1071C177.515 41.1071 175.277 40.4651 173.26 39.1811C171.278 37.8971 169.701 36.0627 168.527 33.6781C167.39 31.2568 166.821 28.4503 166.821 25.2586ZM189.053 25.2586C189.053 23.2775 188.503 21.7184 187.402 20.5811C186.338 19.4438 185.018 18.8752 183.44 18.8752C181.826 18.8752 180.487 19.4438 179.423 20.5811C178.359 21.6817 177.827 23.2408 177.827 25.2586C177.827 27.2397 178.359 28.8172 179.423 29.9911C180.487 31.1284 181.826 31.6971 183.44 31.6971C185.018 31.6971 186.338 31.1284 187.402 29.9911C188.503 28.8539 189.053 27.2763 189.053 25.2586ZM220.348 41.1071C217.266 41.1071 214.496 40.4651 212.038 39.1811C209.617 37.8971 207.709 36.0627 206.315 33.6781C204.921 31.2935 204.224 28.487 204.224 25.2586C204.224 22.0669 204.921 19.2787 206.315 16.8941C207.746 14.5095 209.672 12.6752 212.093 11.3911C214.551 10.1071 217.321 9.4651 220.403 9.4651C223.484 9.4651 226.236 10.1071 228.657 11.3911C231.115 12.6752 233.041 14.5095 234.435 16.8941C235.866 19.2787 236.581 22.0669 236.581 25.2586C236.581 28.4503 235.866 31.2568 234.435 33.6781C233.041 36.0627 231.115 37.8971 228.657 39.1811C226.199 40.4651 223.429 41.1071 220.348 41.1071ZM220.348 31.7521C221.852 31.7521 223.099 31.2018 224.09 30.1012C225.117 28.9639 225.631 27.3497 225.631 25.2586C225.631 23.1675 225.117 21.5716 224.09 20.471C223.099 19.3704 221.87 18.8201 220.403 18.8201C218.935 18.8201 217.706 19.3704 216.716 20.471C215.725 21.5716 215.23 23.1675 215.23 25.2586C215.23 27.3864 215.707 29.0006 216.661 30.1012C217.615 31.2018 218.844 31.7521 220.348 31.7521ZM249.742 25.2586C249.742 22.0669 250.402 19.2787 251.723 16.8941C253.043 14.5095 254.878 12.6752 257.226 11.3911C259.61 10.1071 262.325 9.4651 265.37 9.4651C269.296 9.4651 272.597 10.5473 275.275 12.7118C277.954 14.8397 279.678 17.8296 280.448 21.6817H269.002C268.342 19.6639 267.058 18.655 265.15 18.655C263.793 18.655 262.71 19.2237 261.903 20.361C261.133 21.4616 260.748 23.0941 260.748 25.2586C260.748 27.4231 261.133 29.074 261.903 30.2113C262.71 31.3485 263.793 31.9172 265.15 31.9172C267.094 31.9172 268.378 30.9083 269.002 28.8906H280.448C279.678 32.7059 277.954 35.6959 275.275 37.8604C272.597 40.0249 269.296 41.1071 265.37 41.1071C262.325 41.1071 259.61 40.4651 257.226 39.1811C254.878 37.8971 253.043 36.0627 251.723 33.6781C250.402 31.2935 249.742 28.487 249.742 25.2586ZM299.292 41.1071C296.21 41.1071 293.44 40.4651 290.982 39.1811C288.561 37.8971 286.653 36.0627 285.259 33.6781C283.865 31.2935 283.168 28.487 283.168 25.2586C283.168 22.0669 283.865 19.2787 285.259 16.8941C286.69 14.5095 288.616 12.6752 291.037 11.3911C293.495 10.1071 296.265 9.4651 299.347 9.4651C302.428 9.4651 305.18 10.1071 307.601 11.3911C310.059 12.6752 311.985 14.5095 313.379 16.8941C314.81 19.2787 315.525 22.0669 315.525 25.2586C315.525 28.4503 314.81 31.2568 313.379 33.6781C311.985 36.0627 310.059 37.8971 307.601 39.1811C305.143 40.4651 302.373 41.1071 299.292 41.1071ZM299.292 31.7521C300.796 31.7521 302.043 31.2018 303.034 30.1012C304.061 28.9639 304.574 27.3497 304.574 25.2586C304.574 23.1675 304.061 21.5716 303.034 20.471C302.043 19.3704 300.814 18.8201 299.347 18.8201C297.879 18.8201 296.65 19.3704 295.66 20.471C294.669 21.5716 294.174 23.1675 294.174 25.2586C294.174 27.3864 294.651 29.0006 295.605 30.1012C296.558 31.2018 297.787 31.7521 299.292 31.7521ZM318.153 25.2586C318.153 22.0669 318.721 19.2787 319.858 16.8941C321.032 14.5095 322.628 12.6752 324.646 11.3911C326.664 10.1071 328.902 9.4651 331.36 9.4651C333.341 9.4651 335.102 9.88699 336.642 10.7308C338.22 11.5379 339.449 12.6568 340.329 14.0876V1.19273e-06H351.17V40.7219H340.329V36.4296C339.486 37.8604 338.293 38.9977 336.753 39.8414C335.212 40.6852 333.396 41.1071 331.305 41.1071C328.847 41.1071 326.609 40.4651 324.591 39.1811C322.61 37.8971 321.032 36.0627 319.858 33.6781C318.721 31.2568 318.153 28.4503 318.153 25.2586ZM340.384 25.2586C340.384 23.2775 339.834 21.7184 338.734 20.5811C337.67 19.4438 336.349 18.8752 334.771 18.8752C333.157 18.8752 331.818 19.4438 330.754 20.5811C329.69 21.6817 329.158 23.2408 329.158 25.2586C329.158 27.2397 329.69 28.8172 330.754 29.9911C331.818 31.1284 333.157 31.6971 334.771 31.6971C336.349 31.6971 337.67 31.1284 338.734 29.9911C339.834 28.8539 340.384 27.2763 340.384 25.2586ZM386.812 24.9284C386.812 25.7722 386.757 26.616 386.647 27.4598H366.231C366.341 29.1474 366.8 30.413 367.607 31.2568C368.451 32.0639 369.515 32.4675 370.799 32.4675C372.596 32.4675 373.88 31.6604 374.651 30.0462H386.152C385.675 32.174 384.739 34.0817 383.345 35.7693C381.988 37.4201 380.264 38.7225 378.173 39.6764C376.082 40.6302 373.77 41.1071 371.239 41.1071C368.194 41.1071 365.479 40.4651 363.095 39.1811C360.747 37.8971 358.894 36.0627 357.537 33.6781C356.216 31.2935 355.555 28.487 355.555 25.2586C355.555 22.0302 356.216 19.242 357.537 16.8941C358.857 14.5095 360.692 12.6752 363.039 11.3911C365.424 10.1071 368.157 9.4651 371.239 9.4651C374.284 9.4651 376.98 10.0888 379.328 11.3361C381.676 12.5834 383.511 14.3811 384.831 16.729C386.152 19.0402 386.812 21.7734 386.812 24.9284ZM375.806 22.232C375.806 20.9113 375.366 19.884 374.486 19.1503C373.605 18.3799 372.505 17.9947 371.184 17.9947C369.863 17.9947 368.781 18.3616 367.937 19.0953C367.093 19.7923 366.543 20.8379 366.286 22.232H375.806ZM399.998 25.2586C399.998 22.0669 400.567 19.2787 401.704 16.8941C402.878 14.5095 404.456 12.6752 406.437 11.3911C408.455 10.1071 410.692 9.4651 413.15 9.4651C415.278 9.4651 417.113 9.88699 418.653 10.7308C420.194 11.5746 421.387 12.7118 422.23 14.1426V9.8503H433.016V40.7219H422.23V36.4296C421.387 37.8604 420.176 38.9977 418.598 39.8414C417.058 40.6852 415.242 41.1071 413.15 41.1071C410.692 41.1071 408.455 40.4651 406.437 39.1811C404.456 37.8971 402.878 36.0627 401.704 33.6781C400.567 31.2568 399.998 28.4503 399.998 25.2586ZM422.23 25.2586C422.23 23.2775 421.68 21.7184 420.579 20.5811C419.515 19.4438 418.195 18.8752 416.617 18.8752C415.003 18.8752 413.664 19.4438 412.6 20.5811C411.536 21.6817 411.004 23.2408 411.004 25.2586C411.004 27.2397 411.536 28.8172 412.6 29.9911C413.664 31.1284 415.003 31.6971 416.617 31.6971C418.195 31.6971 419.515 31.1284 420.579 29.9911C421.68 28.8539 422.23 27.2763 422.23 25.2586ZM459.358 9.57515C462.917 9.57515 465.742 10.7675 467.833 13.1521C469.924 15.5 470.969 18.6917 470.969 22.7272V40.7219H460.184V24.158C460.184 22.3971 459.725 21.0213 458.808 20.0308C457.891 19.0036 456.662 18.49 455.121 18.49C453.507 18.49 452.241 19.0036 451.324 20.0308C450.407 21.0213 449.948 22.3971 449.948 24.158V40.7219H439.162V9.8503H449.948V14.2527C450.902 12.8586 452.186 11.7397 453.8 10.8959C455.414 10.0154 457.267 9.57515 459.358 9.57515ZM475.127 25.2586C475.127 22.0669 475.695 19.2787 476.833 16.8941C478.007 14.5095 479.602 12.6752 481.62 11.3911C483.638 10.1071 485.876 9.4651 488.334 9.4651C490.315 9.4651 492.076 9.88699 493.617 10.7308C495.194 11.5379 496.423 12.6568 497.304 14.0876V1.19273e-06H508.144V40.7219H497.304V36.4296C496.46 37.8604 495.267 38.9977 493.727 39.8414C492.186 40.6852 490.37 41.1071 488.279 41.1071C485.821 41.1071 483.583 40.4651 481.565 39.1811C479.584 37.8971 478.007 36.0627 476.833 33.6781C475.695 31.2568 475.127 28.4503 475.127 25.2586ZM497.359 25.2586C497.359 23.2775 496.808 21.7184 495.708 20.5811C494.644 19.4438 493.323 18.8752 491.746 18.8752C490.131 18.8752 488.792 19.4438 487.728 20.5811C486.665 21.6817 486.133 23.2408 486.133 25.2586C486.133 27.2397 486.665 28.8172 487.728 29.9911C488.792 31.1284 490.131 31.6971 491.746 31.6971C493.323 31.6971 494.644 31.1284 495.708 29.9911C496.808 28.8539 497.359 27.2763 497.359 25.2586ZM40.3368 72.6091C44.2255 72.6091 47.2705 73.783 49.4717 76.131C51.7095 78.4789 52.8285 81.689 52.8285 85.7612V103.756H42.0427V87.1919C42.0427 85.541 41.5841 84.257 40.6669 83.3399C39.7498 82.4227 38.5024 81.9641 36.9249 81.9641C35.3474 81.9641 34.1001 82.4227 33.1829 83.3399C32.2657 84.257 31.8072 85.541 31.8072 87.1919V103.756H21.0214V87.1919C21.0214 85.541 20.5628 84.257 19.6456 83.3399C18.7651 82.4227 17.5362 81.9641 15.9586 81.9641C14.3444 81.9641 13.0788 82.4227 12.1616 83.3399C11.2444 84.257 10.7858 85.541 10.7858 87.1919V103.756H4.40641e-05V72.8842H10.7858V76.9564C11.7397 75.6357 12.9687 74.5902 14.4728 73.8197C16.0137 73.0126 17.7746 72.6091 19.7557 72.6091C22.0302 72.6091 24.048 73.1044 25.8089 74.0949C27.6066 75.0854 29.019 76.4795 30.0462 78.2771C31.1468 76.5896 32.5959 75.2322 34.3936 74.2049C36.1912 73.141 38.1723 72.6091 40.3368 72.6091ZM56.9768 88.2925C56.9768 85.1008 57.5454 82.3126 58.6827 79.928C59.8567 77.5434 61.4342 75.7091 63.4152 74.4251C65.433 73.141 67.6709 72.499 70.1288 72.499C72.2567 72.499 74.091 72.9209 75.6318 73.7647C77.1726 74.6085 78.3649 75.7458 79.2087 77.1765V72.8842H89.9945V103.756H79.2087V99.4635C78.3649 100.894 77.1543 102.032 75.5768 102.875C74.036 103.719 72.22 104.141 70.1288 104.141C67.6709 104.141 65.433 103.499 63.4152 102.215C61.4342 100.931 59.8567 99.0967 58.6827 96.7121C57.5454 94.2908 56.9768 91.4842 56.9768 88.2925ZM79.2087 88.2925C79.2087 86.3115 78.6584 84.7523 77.5578 83.615C76.4939 82.4777 75.1732 81.9091 73.5957 81.9091C71.9815 81.9091 70.6425 82.4777 69.5786 83.615C68.5146 84.7156 67.9827 86.2748 67.9827 88.2925C67.9827 90.2736 68.5146 91.8511 69.5786 93.0251C70.6425 94.1624 71.9815 94.731 73.5957 94.731C75.1732 94.731 76.4939 94.1624 77.5578 93.0251C78.6584 91.8878 79.2087 90.3103 79.2087 88.2925ZM115.456 103.756L106.926 91.099V103.756H96.1407V63.0339H106.926V84.9907L115.456 72.8842H128.388L116.226 88.4026L128.608 103.756H115.456ZM161.266 87.9623C161.266 88.8061 161.211 89.6499 161.101 90.4937H140.685C140.795 92.1813 141.254 93.447 142.061 94.2908C142.905 95.0979 143.968 95.5014 145.252 95.5014C147.05 95.5014 148.334 94.6943 149.105 93.0801H160.606C160.129 95.2079 159.193 97.1156 157.799 98.8032C156.442 100.454 154.718 101.756 152.626 102.71C150.535 103.664 148.224 104.141 145.693 104.141C142.648 104.141 139.933 103.499 137.548 102.215C135.2 100.931 133.348 99.0967 131.99 96.7121C130.67 94.3274 130.009 91.5209 130.009 88.2925C130.009 85.0641 130.67 82.276 131.99 79.928C133.311 77.5434 135.145 75.7091 137.493 74.4251C139.878 73.141 142.611 72.499 145.693 72.499C148.738 72.499 151.434 73.1227 153.782 74.37C156.13 75.6174 157.964 77.415 159.285 79.7629C160.606 82.0742 161.266 84.8073 161.266 87.9623ZM150.26 85.2659C150.26 83.9452 149.82 82.918 148.939 82.1842C148.059 81.4138 146.958 81.0286 145.638 81.0286C144.317 81.0286 143.235 81.3955 142.391 82.1292C141.547 82.8263 140.997 83.8718 140.74 85.2659H150.26ZM174.452 88.2925C174.452 85.1008 175.112 82.3126 176.433 79.928C177.754 77.5434 179.588 75.7091 181.936 74.4251C184.321 73.141 187.036 72.499 190.081 72.499C194.006 72.499 197.308 73.5813 199.986 75.7458C202.664 77.8736 204.388 80.8635 205.159 84.7156H193.712C193.052 82.6978 191.768 81.689 189.86 81.689C188.503 81.689 187.421 82.2576 186.614 83.3949C185.843 84.4955 185.458 86.128 185.458 88.2925C185.458 90.457 185.843 92.1079 186.614 93.2452C187.421 94.3825 188.503 94.9511 189.86 94.9511C191.805 94.9511 193.089 93.9422 193.712 91.9245H205.159C204.388 95.7399 202.664 98.7298 199.986 100.894C197.308 103.059 194.006 104.141 190.081 104.141C187.036 104.141 184.321 103.499 181.936 102.215C179.588 100.931 177.754 99.0967 176.433 96.7121C175.112 94.3274 174.452 91.5209 174.452 88.2925ZM224.002 104.141C220.92 104.141 218.151 103.499 215.693 102.215C213.271 100.931 211.364 99.0967 209.969 96.7121C208.575 94.3274 207.878 91.5209 207.878 88.2925C207.878 85.1008 208.575 82.3126 209.969 79.928C211.4 77.5434 213.326 75.7091 215.748 74.4251C218.206 73.141 220.975 72.499 224.057 72.499C227.139 72.499 229.89 73.141 232.311 74.4251C234.769 75.7091 236.695 77.5434 238.09 79.928C239.52 82.3126 240.236 85.1008 240.236 88.2925C240.236 91.4842 239.52 94.2908 238.09 96.7121C236.695 99.0967 234.769 100.931 232.311 102.215C229.853 103.499 227.084 104.141 224.002 104.141ZM224.002 94.786C225.506 94.786 226.753 94.2357 227.744 93.1351C228.771 91.9979 229.285 90.3837 229.285 88.2925C229.285 86.2014 228.771 84.6055 227.744 83.5049C226.753 82.4044 225.524 81.8541 224.057 81.8541C222.59 81.8541 221.361 82.4044 220.37 83.5049C219.379 84.6055 218.884 86.2014 218.884 88.2925C218.884 90.4203 219.361 92.0345 220.315 93.1351C221.269 94.2357 222.498 94.786 224.002 94.786ZM264.82 72.6091C268.378 72.6091 271.203 73.8014 273.294 76.186C275.385 78.5339 276.431 81.7257 276.431 85.7612V103.756H265.645V87.1919C265.645 85.431 265.187 84.0552 264.269 83.0647C263.352 82.0375 262.123 81.5239 260.582 81.5239C258.968 81.5239 257.703 82.0375 256.785 83.0647C255.868 84.0552 255.41 85.431 255.41 87.1919V103.756H244.624V72.8842H255.41V77.2866C256.364 75.8925 257.648 74.7736 259.262 73.9298C260.876 73.0493 262.729 72.6091 264.82 72.6091ZM300.564 94.5659V103.756H295.887C287.999 103.756 284.055 99.8487 284.055 92.0345V81.8541H280.258V72.8842H284.055V65.4002H294.896V72.8842H300.509V81.8541H294.896V92.1996C294.896 93.0434 295.079 93.6487 295.446 94.0156C295.85 94.3825 296.51 94.5659 297.427 94.5659H300.564ZM335.007 87.9623C335.007 88.8061 334.952 89.6499 334.842 90.4937H314.426C314.536 92.1813 314.995 93.447 315.802 94.2908C316.646 95.0979 317.709 95.5014 318.993 95.5014C320.791 95.5014 322.075 94.6943 322.846 93.0801H334.347C333.87 95.2079 332.934 97.1156 331.54 98.8032C330.183 100.454 328.459 101.756 326.367 102.71C324.276 103.664 321.965 104.141 319.434 104.141C316.389 104.141 313.674 103.499 311.289 102.215C308.941 100.931 307.089 99.0967 305.731 96.7121C304.411 94.3274 303.75 91.5209 303.75 88.2925C303.75 85.0641 304.411 82.276 305.731 79.928C307.052 77.5434 308.886 75.7091 311.234 74.4251C313.619 73.141 316.352 72.499 319.434 72.499C322.479 72.499 325.175 73.1227 327.523 74.37C329.871 75.6174 331.705 77.415 333.026 79.7629C334.347 82.0742 335.007 84.8073 335.007 87.9623ZM324.001 85.2659C324.001 83.9452 323.561 82.918 322.68 82.1842C321.8 81.4138 320.699 81.0286 319.379 81.0286C318.058 81.0286 316.976 81.3955 316.132 82.1292C315.288 82.8263 314.738 83.8718 314.481 85.2659H324.001ZM359.617 72.6091C363.175 72.6091 366 73.8014 368.091 76.186C370.183 78.5339 371.228 81.7257 371.228 85.7612V103.756H360.442V87.1919C360.442 85.431 359.984 84.0552 359.067 83.0647C358.149 82.0375 356.92 81.5239 355.38 81.5239C353.765 81.5239 352.5 82.0375 351.583 83.0647C350.665 84.0552 350.207 85.431 350.207 87.1919V103.756H339.421V72.8842H350.207V77.2866C351.161 75.8925 352.445 74.7736 354.059 73.9298C355.673 73.0493 357.526 72.6091 359.617 72.6091ZM395.361 94.5659V103.756H390.684C382.796 103.756 378.852 99.8487 378.852 92.0345V81.8541H375.055V72.8842H378.852V65.4002H389.693V72.8842H395.306V81.8541H389.693V92.1996C389.693 93.0434 389.877 93.6487 390.243 94.0156C390.647 94.3825 391.307 94.5659 392.225 94.5659H395.361Z" fill="white"/>
<path d="M409.08 88.2925C409.08 85.1008 409.649 82.3126 410.786 79.928C411.96 77.5434 413.538 75.7091 415.519 74.4251C417.537 73.141 419.774 72.499 422.232 72.499C424.36 72.499 426.195 72.9209 427.735 73.7647C429.276 74.6085 430.469 75.7458 431.312 77.1765V72.8842H442.098V103.756H431.312V99.4635C430.469 100.894 429.258 102.032 427.68 102.875C426.14 103.719 424.324 104.141 422.232 104.141C419.774 104.141 417.537 103.499 415.519 102.215C413.538 100.931 411.96 99.0967 410.786 96.7121C409.649 94.2908 409.08 91.4842 409.08 88.2925ZM431.312 88.2925C431.312 86.3115 430.762 84.7523 429.661 83.615C428.598 82.4777 427.277 81.9091 425.699 81.9091C424.085 81.9091 422.746 82.4777 421.682 83.615C420.618 84.7156 420.086 86.2748 420.086 88.2925C420.086 90.2736 420.618 91.8511 421.682 93.0251C422.746 94.1624 424.085 94.731 425.699 94.731C427.277 94.731 428.598 94.1624 429.661 93.0251C430.762 91.8878 431.312 90.3103 431.312 88.2925ZM459.03 77.1765C459.874 75.7091 461.066 74.5718 462.607 73.7647C464.148 72.9209 465.964 72.499 468.055 72.499C470.513 72.499 472.732 73.141 474.714 74.4251C476.731 75.7091 478.309 77.5434 479.446 79.928C480.62 82.3126 481.207 85.1008 481.207 88.2925C481.207 91.4842 480.62 94.2908 479.446 96.7121C478.309 99.0967 476.731 100.931 474.714 102.215C472.732 103.499 470.513 104.141 468.055 104.141C465.964 104.141 464.148 103.738 462.607 102.93C461.066 102.087 459.874 100.931 459.03 99.4635V103.756H448.244V63.0339H459.03V77.1765ZM470.256 88.2925C470.256 86.2748 469.706 84.7156 468.605 83.615C467.541 82.4777 466.221 81.9091 464.643 81.9091C463.066 81.9091 461.727 82.4777 460.626 83.615C459.562 84.7523 459.03 86.3115 459.03 88.2925C459.03 90.3103 459.562 91.8878 460.626 93.0251C461.727 94.1624 463.066 94.731 464.643 94.731C466.221 94.731 467.541 94.1624 468.605 93.0251C469.706 91.8511 470.256 90.2736 470.256 88.2925ZM500.01 104.141C496.928 104.141 494.158 103.499 491.7 102.215C489.279 100.931 487.371 99.0967 485.977 96.7121C484.583 94.3274 483.886 91.5209 483.886 88.2925C483.886 85.1008 484.583 82.3126 485.977 79.928C487.408 77.5434 489.334 75.7091 491.755 74.4251C494.213 73.141 496.983 72.499 500.065 72.499C503.147 72.499 505.898 73.141 508.319 74.4251C510.777 75.7091 512.703 77.5434 514.098 79.928C515.528 82.3126 516.244 85.1008 516.244 88.2925C516.244 91.4842 515.528 94.2908 514.098 96.7121C512.703 99.0967 510.777 100.931 508.319 102.215C505.861 103.499 503.092 104.141 500.01 104.141ZM500.01 94.786C501.514 94.786 502.761 94.2357 503.752 93.1351C504.779 91.9979 505.293 90.3837 505.293 88.2925C505.293 86.2014 504.779 84.6055 503.752 83.5049C502.761 82.4044 501.532 81.8541 500.065 81.8541C498.598 81.8541 497.369 82.4044 496.378 83.5049C495.387 84.6055 494.892 86.2014 494.892 88.2925C494.892 90.4203 495.369 92.0345 496.323 93.1351C497.277 94.2357 498.506 94.786 500.01 94.786ZM552.219 72.8842V103.756H541.378V99.3535C540.461 100.748 539.195 101.885 537.581 102.765C535.967 103.609 534.114 104.031 532.023 104.031C528.428 104.031 525.585 102.857 523.493 100.509C521.439 98.1245 520.412 94.8961 520.412 90.8239V72.8842H531.143V89.4481C531.143 91.2091 531.601 92.6032 532.518 93.6304C533.472 94.6209 534.719 95.1162 536.26 95.1162C537.838 95.1162 539.085 94.6209 540.002 93.6304C540.919 92.6032 541.378 91.2091 541.378 89.4481V72.8842H552.219ZM576.572 94.5659V103.756H571.895C564.007 103.756 560.063 99.8487 560.063 92.0345V81.8541H556.266V72.8842H560.063V65.4002H570.904V72.8842H576.517V81.8541H570.904V92.1996C570.904 93.0434 571.087 93.6487 571.454 94.0156C571.858 94.3825 572.518 94.5659 573.435 94.5659H576.572ZM597.5 70.0227C595.592 70.0227 594.052 69.5091 592.878 68.4819C591.74 67.418 591.172 66.0972 591.172 64.5197C591.172 62.9055 591.74 61.5665 592.878 60.5026C594.052 59.4387 595.592 58.9067 597.5 58.9067C599.371 58.9067 600.875 59.4387 602.012 60.5026C603.186 61.5665 603.773 62.9055 603.773 64.5197C603.773 66.0972 603.186 67.418 602.012 68.4819C600.875 69.5091 599.371 70.0227 597.5 70.0227ZM602.838 72.8842V103.756H592.052V72.8842H602.838ZM627.195 94.5659V103.756H622.517C614.63 103.756 610.686 99.8487 610.686 92.0345V81.8541H606.889V72.8842H610.686V65.4002H621.527V72.8842H627.14V81.8541H621.527V92.1996C621.527 93.0434 621.71 93.6487 622.077 94.0156C622.481 94.3825 623.141 94.5659 624.058 94.5659H627.195ZM646.56 62.9789L645.294 89.228H636.104L634.839 62.9789H646.56ZM640.727 104.196C638.819 104.196 637.278 103.682 636.104 102.655C634.967 101.591 634.398 100.252 634.398 98.6381C634.398 97.0239 634.967 95.6848 636.104 94.6209C637.278 93.557 638.819 93.0251 640.727 93.0251C642.598 93.0251 644.102 93.557 645.239 94.6209C646.413 95.6848 647 97.0239 647 98.6381C647 100.216 646.413 101.536 645.239 102.6C644.102 103.664 642.598 104.196 640.727 104.196Z" fill="url(#paint0_linear_14_72)"/>
<defs>
<linearGradient id="paint0_linear_14_72" x1="410.857" y1="103.756" x2="443.01" y2="183.637" gradientUnits="userSpaceOnUse">
<stop stop-color="#FF8660"/>
<stop offset="1" stop-color="#9A33FF"/>
</linearGradient>
</defs>
</svg>
