<svg width="12" height="12" viewBox="0 0 12 12" fill="none" xmlns="http://www.w3.org/2000/svg">
<path d="M0.792257 1.06987C0.792442 0.78617 0.910359 0.514138 1.12011 0.313531C1.32986 0.112924 1.61429 0.000147491 1.91092 -2.94951e-05L10.8813 -2.85573e-05C11.1779 0.000148035 11.4624 0.112926 11.6721 0.313533C11.8819 0.514139 11.9998 0.78617 12 1.06987L12 9.64925C11.9896 9.92648 11.8672 10.1891 11.6586 10.3818C11.45 10.5746 11.1714 10.6824 10.8813 10.6828C10.5913 10.6824 10.3126 10.5746 10.104 10.3818C9.89542 10.1891 9.77305 9.92648 9.76265 9.64925L9.76265 3.65378L1.91092 11.1633C1.701 11.364 1.41629 11.4768 1.11941 11.4768C0.822542 11.4768 0.537828 11.364 0.327908 11.1633C0.117988 10.9625 5.64989e-05 10.6902 5.64989e-05 10.4063C5.61423e-05 10.1223 0.117987 9.85002 0.327908 9.64925L8.17964 2.13977L1.91092 2.13977C1.61429 2.13959 1.32986 2.02681 1.12011 1.82621C0.91036 1.6256 0.792442 1.35357 0.792257 1.06987Z" fill="white"/>
</svg>
